{
	"asset":{
		"generator":"Khronos glTF Blender I/O v5.0.21",
		"version":"2.0"
	},
	"scene":0,
	"scenes":[
		{
			"name":"Scene",
			"nodes":[
				0
			]
		}
	],
	"nodes":[
		{
			"mesh":0,
			"name":"Plane",
			"translation":[
				1,
				0,
				1
			]
		}
	],
	"meshes":[
		{
			"name":"Plane.001",
			"primitives":[
				{
					"attributes":{
						"POSITION":0,
						"NORMAL":1,
						"TEXCOORD_0":2
					},
					"indices":3
				}
			]
		}
	],
	"accessors":[
		{
			"bufferView":0,
			"componentType":5126,
			"count":271,
			"max":[
				9.125219345092773,
				3,
				8.125219345092773
			],
			"min":[
				-1.1399999856948853,
				-0.1358199566602707,
				-1.1399999856948853
			],
			"type":"VEC3"
		},
		{
			"bufferView":1,
			"componentType":5126,
			"count":271,
			"type":"VEC3"
		},
		{
			"bufferView":2,
			"componentType":5126,
			"count":271,
			"type":"VEC2"
		},
		{
			"bufferView":3,
			"componentType":5123,
			"count":552,
			"type":"SCALAR"
		}
	],
	"bufferViews":[
		{
			"buffer":0,
			"byteLength":3252,
			"byteOffset":0,
			"target":34962
		},
		{
			"buffer":0,
			"byteLength":3252,
			"byteOffset":3252,
			"target":34962
		},
		{
			"buffer":0,
			"byteLength":2168,
			"byteOffset":6504,
			"target":34962
		},
		{
			"buffer":0,
			"byteLength":1104,
			"byteOffset":8672,
			"target":34963
		}
	],
	"buffers":[
		{
			"byteLength":9776,
			"uri":"apartment.bin"
		}
	]
}
