{
	"asset":{
		"generator":"Khronos glTF Blender I/O v5.0.21",
		"version":"2.0"
	},
	"scene":0,
	"scenes":[
		{
			"name":"Scene",
			"nodes":[
				0,
				1,
				2,
				3,
				4,
				5,
				6,
				7,
				8,
				9,
				10,
				11,
				12,
				13,
				14,
				15,
				16,
				17
			]
		}
	],
	"nodes":[
		{
			"mesh":0,
			"name":"Plane",
			"translation":[
				1,
				0,
				1
			]
		},
		{
			"mesh":1,
			"name":"Cube.001",
			"scale":[
				1.6393208503723145,
				0.5633096098899841,
				0.7736961841583252
			],
			"translation":[
				3.5755107402801514,
				0.5633115172386169,
				8.126181602478027
			]
		},
		{
			"mesh":2,
			"name":"Cube.002",
			"rotation":[
				0,
				0.7041484713554382,
				0,
				0.7100528478622437
			],
			"scale":[
				0.2772444784641266,
				0.015570685267448425,
				0.2772444784641266
			],
			"translation":[
				9.064062118530273,
				0.606299877166748,
				1.408846378326416
			]
		},
		{
			"mesh":3,
			"name":"Cylinder.002",
			"rotation":[
				0,
				0,
				-0.7071068286895752,
				0.7071067094802856
			],
			"scale":[
				0.003904950339347124,
				0.3690124452114105,
				0.003904949873685837
			],
			"translation":[
				5.7894697189331055,
				1.1410834789276123,
				5.799172878265381
			]
		},
		{
			"mesh":4,
			"name":"Cube.003",
			"rotation":[
				0,
				-0.315883994102478,
				0,
				0.9487978219985962
			],
			"scale":[
				1.3904781341552734,
				0.4859392046928406,
				0.6284385323524475
			],
			"translation":[
				6.905427932739258,
				0.4859392046928406,
				7.495424747467041
			]
		},
		{
			"mesh":5,
			"name":"Cube.004",
			"scale":[
				1.1998896598815918,
				0.03544759377837181,
				0.6401859521865845
			],
			"translation":[
				8.612829208374023,
				0.9937164187431335,
				2.209439754486084
			]
		},
		{
			"mesh":6,
			"name":"Cube.005",
			"rotation":[
				0,
				0.7041484713554382,
				0,
				0.7100528478622437
			],
			"scale":[
				0.2772444784641266,
				0.015570685267448425,
				0.2772444784641266
			],
			"translation":[
				8.11361026763916,
				0.606299877166748,
				1.4258191585540771
			]
		},
		{
			"mesh":7,
			"name":"Cube.006",
			"rotation":[
				0,
				1,
				0,
				0
			],
			"scale":[
				0.2772444486618042,
				0.015570685267448425,
				0.2772444486618042
			],
			"translation":[
				7.383327960968018,
				0.6062989234924316,
				2.196232795715332
			]
		},
		{
			"mesh":8,
			"name":"Cube.007",
			"rotation":[
				0,
				-0.7071068286895752,
				0,
				0.7071068286895752
			],
			"scale":[
				1.462268352508545,
				0.08201637119054794,
				0.7498264312744141
			],
			"translation":[
				9.229989051818848,
				0.8526859879493713,
				7.266023635864258
			]
		},
		{
			"mesh":9,
			"name":"Cube.009",
			"rotation":[
				0,
				-0.7071068286895752,
				0,
				0.7071068286895752
			],
			"scale":[
				0.33547288179397583,
				1.2974220514297485,
				0.782279372215271
			],
			"translation":[
				3.377413034439087,
				1.2974220514297485,
				2.6645262241363525
			]
		},
		{
			"mesh":10,
			"name":"Cube.012",
			"scale":[
				0.3622199296951294,
				0.3622199296951294,
				0.3622199296951294
			],
			"translation":[
				4.90423059463501,
				0.9920352101325989,
				2.533353090286255
			]
		},
		{
			"mesh":11,
			"name":"Cube.013",
			"scale":[
				1.3556690216064453,
				0.46633726358413696,
				0.46633726358413696
			],
			"translation":[
				8.361778259277344,
				0.46633630990982056,
				3.5115585327148438
			]
		},
		{
			"mesh":12,
			"name":"Cube.014",
			"rotation":[
				0,
				-1,
				0,
				4.371138828673793e-08
			],
			"scale":[
				0.619205892086029,
				0.3245675563812256,
				0.4758196175098419
			],
			"translation":[
				0.7517431974411011,
				0.3245675563812256,
				7.459070205688477
			]
		},
		{
			"mesh":13,
			"name":"Cube.008",
			"scale":[
				0.9713643193244934,
				0.03544759377837181,
				0.4567008912563324
			],
			"translation":[
				5.359582901000977,
				0.5943671464920044,
				2.5432991981506348
			]
		},
		{
			"mesh":14,
			"name":"Cube.010",
			"scale":[
				0.3622199296951294,
				0.3622199296951294,
				0.3622199296951294
			],
			"translation":[
				4.8304643630981445,
				1.3913854360580444,
				6.70922327041626
			]
		},
		{
			"mesh":15,
			"name":"Cube.011",
			"scale":[
				0.4951614737510681,
				0.03544759377837181,
				0.4567008912563324
			],
			"translation":[
				4.859486103057861,
				0.99371737241745,
				6.719169616699219
			]
		},
		{
			"mesh":16,
			"name":"Cube.015",
			"scale":[
				0.40531787276268005,
				0.40531787276268005,
				0.40531787276268005
			],
			"translation":[
				5.814041614532471,
				1.035132884979248,
				2.5422470569610596
			]
		},
		{
			"mesh":17,
			"name":"Cube.016",
			"rotation":[
				0,
				0.7071068286895752,
				0,
				0.7071068286895752
			],
			"scale":[
				0.33547288179397583,
				1.2974220514297485,
				0.782279372215271
			],
			"translation":[
				3.3756444454193115,
				1.2974220514297485,
				3.307605028152466
			]
		}
	],
	"materials":[
		{
			"doubleSided":true,
			"name":"Material.001",
			"pbrMetallicRoughness":{
				"baseColorFactor":[
					0.800000011920929,
					0.800000011920929,
					0.800000011920929,
					1
				],
				"metallicFactor":0,
				"roughnessFactor":0.5
			}
		},
		{
			"doubleSided":true,
			"name":"Material.002",
			"pbrMetallicRoughness":{
				"baseColorFactor":[
					0.800000011920929,
					0.800000011920929,
					0.800000011920929,
					1
				],
				"metallicFactor":0,
				"roughnessFactor":0.5
			}
		},
		{
			"doubleSided":true,
			"name":"Material.003",
			"pbrMetallicRoughness":{
				"baseColorFactor":[
					0.800000011920929,
					0.800000011920929,
					0.800000011920929,
					1
				],
				"metallicFactor":0,
				"roughnessFactor":0.5
			}
		}
	],
	"meshes":[
		{
			"name":"Plane.001",
			"primitives":[
				{
					"attributes":{
						"POSITION":0,
						"NORMAL":1,
						"TEXCOORD_0":2
					},
					"indices":3
				}
			]
		},
		{
			"name":"Cube.008",
			"primitives":[
				{
					"attributes":{
						"POSITION":4,
						"NORMAL":5,
						"TEXCOORD_0":6
					},
					"indices":7
				}
			]
		},
		{
			"name":"Cube.009",
			"primitives":[
				{
					"attributes":{
						"POSITION":8,
						"NORMAL":9,
						"TEXCOORD_0":10
					},
					"indices":11,
					"material":0
				}
			]
		},
		{
			"name":"Cylinder.002",
			"primitives":[
				{
					"attributes":{
						"POSITION":12,
						"NORMAL":13,
						"TEXCOORD_0":14
					},
					"indices":15
				}
			]
		},
		{
			"name":"Cube.010",
			"primitives":[
				{
					"attributes":{
						"POSITION":16,
						"NORMAL":17,
						"TEXCOORD_0":18
					},
					"indices":19
				}
			]
		},
		{
			"name":"Cube.011",
			"primitives":[
				{
					"attributes":{
						"POSITION":20,
						"NORMAL":21,
						"TEXCOORD_0":22
					},
					"indices":23,
					"material":1
				}
			]
		},
		{
			"name":"Cube.012",
			"primitives":[
				{
					"attributes":{
						"POSITION":24,
						"NORMAL":25,
						"TEXCOORD_0":26
					},
					"indices":11,
					"material":0
				}
			]
		},
		{
			"name":"Cube.013",
			"primitives":[
				{
					"attributes":{
						"POSITION":27,
						"NORMAL":28,
						"TEXCOORD_0":29
					},
					"indices":11,
					"material":0
				}
			]
		},
		{
			"name":"Cube",
			"primitives":[
				{
					"attributes":{
						"POSITION":30,
						"NORMAL":31,
						"TEXCOORD_0":32
					},
					"indices":33,
					"material":2
				},
				{
					"attributes":{
						"POSITION":34,
						"NORMAL":35,
						"TEXCOORD_0":36
					},
					"indices":37
				}
			]
		},
		{
			"name":"Cube.006",
			"primitives":[
				{
					"attributes":{
						"POSITION":38,
						"NORMAL":39,
						"TEXCOORD_0":40
					},
					"indices":41
				}
			]
		},
		{
			"name":"Cube.003",
			"primitives":[
				{
					"attributes":{
						"POSITION":42,
						"NORMAL":43,
						"TEXCOORD_0":44
					},
					"indices":45
				}
			]
		},
		{
			"name":"Cube.004",
			"primitives":[
				{
					"attributes":{
						"POSITION":46,
						"NORMAL":47,
						"TEXCOORD_0":48
					},
					"indices":49
				}
			]
		},
		{
			"name":"Cube.014",
			"primitives":[
				{
					"attributes":{
						"POSITION":50,
						"NORMAL":51,
						"TEXCOORD_0":52
					},
					"indices":53
				}
			]
		},
		{
			"name":"Cube.015",
			"primitives":[
				{
					"attributes":{
						"POSITION":54,
						"NORMAL":55,
						"TEXCOORD_0":56
					},
					"indices":23,
					"material":1
				}
			]
		},
		{
			"name":"Cube.016",
			"primitives":[
				{
					"attributes":{
						"POSITION":57,
						"NORMAL":58,
						"TEXCOORD_0":59
					},
					"indices":45
				}
			]
		},
		{
			"name":"Cube.017",
			"primitives":[
				{
					"attributes":{
						"POSITION":60,
						"NORMAL":61,
						"TEXCOORD_0":62
					},
					"indices":23,
					"material":1
				}
			]
		},
		{
			"name":"Cube.018",
			"primitives":[
				{
					"attributes":{
						"POSITION":63,
						"NORMAL":64,
						"TEXCOORD_0":65
					},
					"indices":66
				}
			]
		},
		{
			"name":"Cube.019",
			"primitives":[
				{
					"attributes":{
						"POSITION":67,
						"NORMAL":68,
						"TEXCOORD_0":69
					},
					"indices":41
				}
			]
		}
	],
	"accessors":[
		{
			"bufferView":0,
			"componentType":5126,
			"count":271,
			"max":[
				9.125219345092773,
				3,
				8.125219345092773
			],
			"min":[
				-1.1399999856948853,
				-0.1358199566602707,
				-1.1399999856948853
			],
			"type":"VEC3"
		},
		{
			"bufferView":1,
			"componentType":5126,
			"count":271,
			"type":"VEC3"
		},
		{
			"bufferView":2,
			"componentType":5126,
			"count":271,
			"type":"VEC2"
		},
		{
			"bufferView":3,
			"componentType":5123,
			"count":552,
			"type":"SCALAR"
		},
		{
			"bufferView":4,
			"componentType":5126,
			"count":673,
			"max":[
				1,
				1,
				1
			],
			"min":[
				-1,
				-1,
				-1
			],
			"type":"VEC3"
		},
		{
			"bufferView":5,
			"componentType":5126,
			"count":673,
			"type":"VEC3"
		},
		{
			"bufferView":6,
			"componentType":5126,
			"count":673,
			"type":"VEC2"
		},
		{
			"bufferView":7,
			"componentType":5123,
			"count":948,
			"type":"SCALAR"
		},
		{
			"bufferView":8,
			"componentType":5126,
			"count":800,
			"max":[
				1.241743803024292,
				44.51525115966797,
				1
			],
			"min":[
				-1,
				-38.93854904174805,
				-1
			],
			"type":"VEC3"
		},
		{
			"bufferView":9,
			"componentType":5126,
			"count":800,
			"type":"VEC3"
		},
		{
			"bufferView":10,
			"componentType":5126,
			"count":800,
			"type":"VEC2"
		},
		{
			"bufferView":11,
			"componentType":5123,
			"count":1644,
			"type":"SCALAR"
		},
		{
			"bufferView":12,
			"componentType":5126,
			"count":1136,
			"max":[
				292.2147216796875,
				1.0582164525985718,
				100.00000762939453
			],
			"min":[
				-178.92971801757812,
				-1.0582164525985718,
				-100.00000762939453
			],
			"type":"VEC3"
		},
		{
			"bufferView":13,
			"componentType":5126,
			"count":1136,
			"type":"VEC3"
		},
		{
			"bufferView":14,
			"componentType":5126,
			"count":1136,
			"type":"VEC2"
		},
		{
			"bufferView":15,
			"componentType":5123,
			"count":1884,
			"type":"SCALAR"
		},
		{
			"bufferView":16,
			"componentType":5126,
			"count":478,
			"max":[
				1,
				1,
				1
			],
			"min":[
				-1,
				-1,
				-1
			],
			"type":"VEC3"
		},
		{
			"bufferView":17,
			"componentType":5126,
			"count":478,
			"type":"VEC3"
		},
		{
			"bufferView":18,
			"componentType":5126,
			"count":478,
			"type":"VEC2"
		},
		{
			"bufferView":19,
			"componentType":5123,
			"count":996,
			"type":"SCALAR"
		},
		{
			"bufferView":20,
			"componentType":5126,
			"count":144,
			"max":[
				1,
				1,
				1
			],
			"min":[
				-1,
				-28.033422470092773,
				-1
			],
			"type":"VEC3"
		},
		{
			"bufferView":21,
			"componentType":5126,
			"count":144,
			"type":"VEC3"
		},
		{
			"bufferView":22,
			"componentType":5126,
			"count":144,
			"type":"VEC2"
		},
		{
			"bufferView":23,
			"componentType":5123,
			"count":300,
			"type":"SCALAR"
		},
		{
			"bufferView":24,
			"componentType":5126,
			"count":800,
			"max":[
				1.241743803024292,
				44.51525115966797,
				1
			],
			"min":[
				-1,
				-38.93854904174805,
				-1
			],
			"type":"VEC3"
		},
		{
			"bufferView":25,
			"componentType":5126,
			"count":800,
			"type":"VEC3"
		},
		{
			"bufferView":26,
			"componentType":5126,
			"count":800,
			"type":"VEC2"
		},
		{
			"bufferView":27,
			"componentType":5126,
			"count":800,
			"max":[
				1.241743803024292,
				44.51525115966797,
				1
			],
			"min":[
				-1,
				-38.93854904174805,
				-1
			],
			"type":"VEC3"
		},
		{
			"bufferView":28,
			"componentType":5126,
			"count":800,
			"type":"VEC3"
		},
		{
			"bufferView":29,
			"componentType":5126,
			"count":800,
			"type":"VEC2"
		},
		{
			"bufferView":30,
			"componentType":5126,
			"count":226,
			"max":[
				1,
				9.145646095275879,
				1
			],
			"min":[
				-1,
				-10.396533966064453,
				-1
			],
			"type":"VEC3"
		},
		{
			"bufferView":31,
			"componentType":5126,
			"count":226,
			"type":"VEC3"
		},
		{
			"bufferView":32,
			"componentType":5126,
			"count":226,
			"type":"VEC2"
		},
		{
			"bufferView":33,
			"componentType":5123,
			"count":576,
			"type":"SCALAR"
		},
		{
			"bufferView":34,
			"componentType":5126,
			"count":168,
			"max":[
				0.8003366589546204,
				3.920044422149658,
				0.6112980842590332
			],
			"min":[
				0.42040878534317017,
				2.3280787467956543,
				-0.7493176460266113
			],
			"type":"VEC3"
		},
		{
			"bufferView":35,
			"componentType":5126,
			"count":168,
			"type":"VEC3"
		},
		{
			"bufferView":36,
			"componentType":5126,
			"count":168,
			"type":"VEC2"
		},
		{
			"bufferView":37,
			"componentType":5123,
			"count":636,
			"type":"SCALAR"
		},
		{
			"bufferView":38,
			"componentType":5126,
			"count":516,
			"max":[
				1,
				1,
				1
			],
			"min":[
				-1,
				-1,
				-1
			],
			"type":"VEC3"
		},
		{
			"bufferView":39,
			"componentType":5126,
			"count":516,
			"type":"VEC3"
		},
		{
			"bufferView":40,
			"componentType":5126,
			"count":516,
			"type":"VEC2"
		},
		{
			"bufferView":41,
			"componentType":5123,
			"count":1212,
			"type":"SCALAR"
		},
		{
			"bufferView":42,
			"componentType":5126,
			"count":1572,
			"max":[
				1,
				1.5379822254180908,
				1
			],
			"min":[
				-1,
				-1,
				-1
			],
			"type":"VEC3"
		},
		{
			"bufferView":43,
			"componentType":5126,
			"count":1572,
			"type":"VEC3"
		},
		{
			"bufferView":44,
			"componentType":5126,
			"count":1572,
			"type":"VEC2"
		},
		{
			"bufferView":45,
			"componentType":5123,
			"count":2538,
			"type":"SCALAR"
		},
		{
			"bufferView":46,
			"componentType":5126,
			"count":48,
			"max":[
				1,
				3.51548433303833,
				1
			],
			"min":[
				-1,
				-1,
				-1
			],
			"type":"VEC3"
		},
		{
			"bufferView":47,
			"componentType":5126,
			"count":48,
			"type":"VEC3"
		},
		{
			"bufferView":48,
			"componentType":5126,
			"count":48,
			"type":"VEC2"
		},
		{
			"bufferView":49,
			"componentType":5123,
			"count":72,
			"type":"SCALAR"
		},
		{
			"bufferView":50,
			"componentType":5126,
			"count":294,
			"max":[
				1,
				3.479586124420166,
				1
			],
			"min":[
				-1,
				-1,
				-1
			],
			"type":"VEC3"
		},
		{
			"bufferView":51,
			"componentType":5126,
			"count":294,
			"type":"VEC3"
		},
		{
			"bufferView":52,
			"componentType":5126,
			"count":294,
			"type":"VEC2"
		},
		{
			"bufferView":53,
			"componentType":5123,
			"count":612,
			"type":"SCALAR"
		},
		{
			"bufferView":54,
			"componentType":5126,
			"count":144,
			"max":[
				1,
				1,
				1
			],
			"min":[
				-1,
				-28.033422470092773,
				-1
			],
			"type":"VEC3"
		},
		{
			"bufferView":55,
			"componentType":5126,
			"count":144,
			"type":"VEC3"
		},
		{
			"bufferView":56,
			"componentType":5126,
			"count":144,
			"type":"VEC2"
		},
		{
			"bufferView":57,
			"componentType":5126,
			"count":1572,
			"max":[
				1,
				1.5379822254180908,
				1
			],
			"min":[
				-1,
				-1,
				-1
			],
			"type":"VEC3"
		},
		{
			"bufferView":58,
			"componentType":5126,
			"count":1572,
			"type":"VEC3"
		},
		{
			"bufferView":59,
			"componentType":5126,
			"count":1572,
			"type":"VEC2"
		},
		{
			"bufferView":60,
			"componentType":5126,
			"count":144,
			"max":[
				1,
				1,
				1
			],
			"min":[
				-1,
				-28.033422470092773,
				-1
			],
			"type":"VEC3"
		},
		{
			"bufferView":61,
			"componentType":5126,
			"count":144,
			"type":"VEC3"
		},
		{
			"bufferView":62,
			"componentType":5126,
			"count":144,
			"type":"VEC2"
		},
		{
			"bufferView":63,
			"componentType":5126,
			"count":24,
			"max":[
				1,
				1,
				1
			],
			"min":[
				-1,
				-1,
				-1
			],
			"type":"VEC3"
		},
		{
			"bufferView":64,
			"componentType":5126,
			"count":24,
			"type":"VEC3"
		},
		{
			"bufferView":65,
			"componentType":5126,
			"count":24,
			"type":"VEC2"
		},
		{
			"bufferView":66,
			"componentType":5123,
			"count":36,
			"type":"SCALAR"
		},
		{
			"bufferView":67,
			"componentType":5126,
			"count":516,
			"max":[
				1,
				1,
				1
			],
			"min":[
				-1,
				-1,
				-1
			],
			"type":"VEC3"
		},
		{
			"bufferView":68,
			"componentType":5126,
			"count":516,
			"type":"VEC3"
		},
		{
			"bufferView":69,
			"componentType":5126,
			"count":516,
			"type":"VEC2"
		}
	],
	"bufferViews":[
		{
			"buffer":0,
			"byteLength":3252,
			"byteOffset":0,
			"target":34962
		},
		{
			"buffer":0,
			"byteLength":3252,
			"byteOffset":3252,
			"target":34962
		},
		{
			"buffer":0,
			"byteLength":2168,
			"byteOffset":6504,
			"target":34962
		},
		{
			"buffer":0,
			"byteLength":1104,
			"byteOffset":8672,
			"target":34963
		},
		{
			"buffer":0,
			"byteLength":8076,
			"byteOffset":9776,
			"target":34962
		},
		{
			"buffer":0,
			"byteLength":8076,
			"byteOffset":17852,
			"target":34962
		},
		{
			"buffer":0,
			"byteLength":5384,
			"byteOffset":25928,
			"target":34962
		},
		{
			"buffer":0,
			"byteLength":1896,
			"byteOffset":31312,
			"target":34963
		},
		{
			"buffer":0,
			"byteLength":9600,
			"byteOffset":33208,
			"target":34962
		},
		{
			"buffer":0,
			"byteLength":9600,
			"byteOffset":42808,
			"target":34962
		},
		{
			"buffer":0,
			"byteLength":6400,
			"byteOffset":52408,
			"target":34962
		},
		{
			"buffer":0,
			"byteLength":3288,
			"byteOffset":58808,
			"target":34963
		},
		{
			"buffer":0,
			"byteLength":13632,
			"byteOffset":62096,
			"target":34962
		},
		{
			"buffer":0,
			"byteLength":13632,
			"byteOffset":75728,
			"target":34962
		},
		{
			"buffer":0,
			"byteLength":9088,
			"byteOffset":89360,
			"target":34962
		},
		{
			"buffer":0,
			"byteLength":3768,
			"byteOffset":98448,
			"target":34963
		},
		{
			"buffer":0,
			"byteLength":5736,
			"byteOffset":102216,
			"target":34962
		},
		{
			"buffer":0,
			"byteLength":5736,
			"byteOffset":107952,
			"target":34962
		},
		{
			"buffer":0,
			"byteLength":3824,
			"byteOffset":113688,
			"target":34962
		},
		{
			"buffer":0,
			"byteLength":1992,
			"byteOffset":117512,
			"target":34963
		},
		{
			"buffer":0,
			"byteLength":1728,
			"byteOffset":119504,
			"target":34962
		},
		{
			"buffer":0,
			"byteLength":1728,
			"byteOffset":121232,
			"target":34962
		},
		{
			"buffer":0,
			"byteLength":1152,
			"byteOffset":122960,
			"target":34962
		},
		{
			"buffer":0,
			"byteLength":600,
			"byteOffset":124112,
			"target":34963
		},
		{
			"buffer":0,
			"byteLength":9600,
			"byteOffset":124712,
			"target":34962
		},
		{
			"buffer":0,
			"byteLength":9600,
			"byteOffset":134312,
			"target":34962
		},
		{
			"buffer":0,
			"byteLength":6400,
			"byteOffset":143912,
			"target":34962
		},
		{
			"buffer":0,
			"byteLength":9600,
			"byteOffset":150312,
			"target":34962
		},
		{
			"buffer":0,
			"byteLength":9600,
			"byteOffset":159912,
			"target":34962
		},
		{
			"buffer":0,
			"byteLength":6400,
			"byteOffset":169512,
			"target":34962
		},
		{
			"buffer":0,
			"byteLength":2712,
			"byteOffset":175912,
			"target":34962
		},
		{
			"buffer":0,
			"byteLength":2712,
			"byteOffset":178624,
			"target":34962
		},
		{
			"buffer":0,
			"byteLength":1808,
			"byteOffset":181336,
			"target":34962
		},
		{
			"buffer":0,
			"byteLength":1152,
			"byteOffset":183144,
			"target":34963
		},
		{
			"buffer":0,
			"byteLength":2016,
			"byteOffset":184296,
			"target":34962
		},
		{
			"buffer":0,
			"byteLength":2016,
			"byteOffset":186312,
			"target":34962
		},
		{
			"buffer":0,
			"byteLength":1344,
			"byteOffset":188328,
			"target":34962
		},
		{
			"buffer":0,
			"byteLength":1272,
			"byteOffset":189672,
			"target":34963
		},
		{
			"buffer":0,
			"byteLength":6192,
			"byteOffset":190944,
			"target":34962
		},
		{
			"buffer":0,
			"byteLength":6192,
			"byteOffset":197136,
			"target":34962
		},
		{
			"buffer":0,
			"byteLength":4128,
			"byteOffset":203328,
			"target":34962
		},
		{
			"buffer":0,
			"byteLength":2424,
			"byteOffset":207456,
			"target":34963
		},
		{
			"buffer":0,
			"byteLength":18864,
			"byteOffset":209880,
			"target":34962
		},
		{
			"buffer":0,
			"byteLength":18864,
			"byteOffset":228744,
			"target":34962
		},
		{
			"buffer":0,
			"byteLength":12576,
			"byteOffset":247608,
			"target":34962
		},
		{
			"buffer":0,
			"byteLength":5076,
			"byteOffset":260184,
			"target":34963
		},
		{
			"buffer":0,
			"byteLength":576,
			"byteOffset":265260,
			"target":34962
		},
		{
			"buffer":0,
			"byteLength":576,
			"byteOffset":265836,
			"target":34962
		},
		{
			"buffer":0,
			"byteLength":384,
			"byteOffset":266412,
			"target":34962
		},
		{
			"buffer":0,
			"byteLength":144,
			"byteOffset":266796,
			"target":34963
		},
		{
			"buffer":0,
			"byteLength":3528,
			"byteOffset":266940,
			"target":34962
		},
		{
			"buffer":0,
			"byteLength":3528,
			"byteOffset":270468,
			"target":34962
		},
		{
			"buffer":0,
			"byteLength":2352,
			"byteOffset":273996,
			"target":34962
		},
		{
			"buffer":0,
			"byteLength":1224,
			"byteOffset":276348,
			"target":34963
		},
		{
			"buffer":0,
			"byteLength":1728,
			"byteOffset":277572,
			"target":34962
		},
		{
			"buffer":0,
			"byteLength":1728,
			"byteOffset":279300,
			"target":34962
		},
		{
			"buffer":0,
			"byteLength":1152,
			"byteOffset":281028,
			"target":34962
		},
		{
			"buffer":0,
			"byteLength":18864,
			"byteOffset":282180,
			"target":34962
		},
		{
			"buffer":0,
			"byteLength":18864,
			"byteOffset":301044,
			"target":34962
		},
		{
			"buffer":0,
			"byteLength":12576,
			"byteOffset":319908,
			"target":34962
		},
		{
			"buffer":0,
			"byteLength":1728,
			"byteOffset":332484,
			"target":34962
		},
		{
			"buffer":0,
			"byteLength":1728,
			"byteOffset":334212,
			"target":34962
		},
		{
			"buffer":0,
			"byteLength":1152,
			"byteOffset":335940,
			"target":34962
		},
		{
			"buffer":0,
			"byteLength":288,
			"byteOffset":337092,
			"target":34962
		},
		{
			"buffer":0,
			"byteLength":288,
			"byteOffset":337380,
			"target":34962
		},
		{
			"buffer":0,
			"byteLength":192,
			"byteOffset":337668,
			"target":34962
		},
		{
			"buffer":0,
			"byteLength":72,
			"byteOffset":337860,
			"target":34963
		},
		{
			"buffer":0,
			"byteLength":6192,
			"byteOffset":337932,
			"target":34962
		},
		{
			"buffer":0,
			"byteLength":6192,
			"byteOffset":344124,
			"target":34962
		},
		{
			"buffer":0,
			"byteLength":4128,
			"byteOffset":350316,
			"target":34962
		}
	],
	"buffers":[
		{
			"byteLength":354444,
			"uri":"apartment.bin"
		}
	]
}
