{
	"asset":{
		"generator":"Khronos glTF Blender I/O v5.0.21",
		"version":"2.0"
	},
	"scene":0,
	"scenes":[
		{
			"name":"Scene",
			"nodes":[
				0
			]
		}
	],
	"nodes":[
		{
			"mesh":0,
			"name":"Cube",
			"scale":[
				2.9101595878601074,
				1,
				1.3734830617904663
			]
		}
	],
	"meshes":[
		{
			"name":"Cube.003",
			"primitives":[
				{
					"attributes":{
						"POSITION":0,
						"NORMAL":1,
						"TEXCOORD_0":2
					},
					"indices":3
				}
			]
		}
	],
	"accessors":[
		{
			"bufferView":0,
			"componentType":5126,
			"count":609,
			"max":[
				1,
				1,
				1
			],
			"min":[
				-1,
				-1,
				-1
			],
			"type":"VEC3"
		},
		{
			"bufferView":1,
			"componentType":5126,
			"count":609,
			"type":"VEC3"
		},
		{
			"bufferView":2,
			"componentType":5126,
			"count":609,
			"type":"VEC2"
		},
		{
			"bufferView":3,
			"componentType":5123,
			"count":948,
			"type":"SCALAR"
		}
	],
	"bufferViews":[
		{
			"buffer":0,
			"byteLength":7308,
			"byteOffset":0,
			"target":34962
		},
		{
			"buffer":0,
			"byteLength":7308,
			"byteOffset":7308,
			"target":34962
		},
		{
			"buffer":0,
			"byteLength":4872,
			"byteOffset":14616,
			"target":34962
		},
		{
			"buffer":0,
			"byteLength":1896,
			"byteOffset":19488,
			"target":34963
		}
	],
	"buffers":[
		{
			"byteLength":21384,
			"uri":"bathtub.bin"
		}
	]
}
