{
	"asset":{
		"generator":"Khronos glTF Blender I/O v5.0.21",
		"version":"2.0"
	},
	"scene":0,
	"scenes":[
		{
			"name":"Scene",
			"nodes":[
				0,
				1,
				2
			]
		}
	],
	"nodes":[
		{
			"mesh":0,
			"name":"Cube",
			"scale":[
				1.6378668546676636,
				6.334355354309082,
				3.819293975830078
			]
		},
		{
			"mesh":1,
			"name":"Cube.001",
			"scale":[
				1.52692449092865,
				0.08736887574195862,
				3.4958834648132324
			],
			"translation":[
				0,
				1.806366205215454,
				0
			]
		},
		{
			"mesh":2,
			"name":"Cube.002",
			"scale":[
				1.52692449092865,
				0.08736887574195862,
				3.4958834648132324
			],
			"translation":[
				0,
				-2.4997761249542236,
				0
			]
		}
	],
	"meshes":[
		{
			"name":"Cube.006",
			"primitives":[
				{
					"attributes":{
						"POSITION":0,
						"NORMAL":1,
						"TEXCOORD_0":2
					},
					"indices":3
				}
			]
		},
		{
			"name":"Cube.007",
			"primitives":[
				{
					"attributes":{
						"POSITION":4,
						"NORMAL":5,
						"TEXCOORD_0":6
					},
					"indices":7
				}
			]
		},
		{
			"name":"Cube.008",
			"primitives":[
				{
					"attributes":{
						"POSITION":8,
						"NORMAL":9,
						"TEXCOORD_0":10
					},
					"indices":7
				}
			]
		}
	],
	"accessors":[
		{
			"bufferView":0,
			"componentType":5126,
			"count":464,
			"max":[
				1,
				1,
				1
			],
			"min":[
				-1,
				-1,
				-1
			],
			"type":"VEC3"
		},
		{
			"bufferView":1,
			"componentType":5126,
			"count":464,
			"type":"VEC3"
		},
		{
			"bufferView":2,
			"componentType":5126,
			"count":464,
			"type":"VEC2"
		},
		{
			"bufferView":3,
			"componentType":5123,
			"count":1140,
			"type":"SCALAR"
		},
		{
			"bufferView":4,
			"componentType":5126,
			"count":24,
			"max":[
				1,
				1,
				1
			],
			"min":[
				-1,
				-1,
				-1
			],
			"type":"VEC3"
		},
		{
			"bufferView":5,
			"componentType":5126,
			"count":24,
			"type":"VEC3"
		},
		{
			"bufferView":6,
			"componentType":5126,
			"count":24,
			"type":"VEC2"
		},
		{
			"bufferView":7,
			"componentType":5123,
			"count":36,
			"type":"SCALAR"
		},
		{
			"bufferView":8,
			"componentType":5126,
			"count":24,
			"max":[
				1,
				1,
				1
			],
			"min":[
				-1,
				-1,
				-1
			],
			"type":"VEC3"
		},
		{
			"bufferView":9,
			"componentType":5126,
			"count":24,
			"type":"VEC3"
		},
		{
			"bufferView":10,
			"componentType":5126,
			"count":24,
			"type":"VEC2"
		}
	],
	"bufferViews":[
		{
			"buffer":0,
			"byteLength":5568,
			"byteOffset":0,
			"target":34962
		},
		{
			"buffer":0,
			"byteLength":5568,
			"byteOffset":5568,
			"target":34962
		},
		{
			"buffer":0,
			"byteLength":3712,
			"byteOffset":11136,
			"target":34962
		},
		{
			"buffer":0,
			"byteLength":2280,
			"byteOffset":14848,
			"target":34963
		},
		{
			"buffer":0,
			"byteLength":288,
			"byteOffset":17128,
			"target":34962
		},
		{
			"buffer":0,
			"byteLength":288,
			"byteOffset":17416,
			"target":34962
		},
		{
			"buffer":0,
			"byteLength":192,
			"byteOffset":17704,
			"target":34962
		},
		{
			"buffer":0,
			"byteLength":72,
			"byteOffset":17896,
			"target":34963
		},
		{
			"buffer":0,
			"byteLength":288,
			"byteOffset":17968,
			"target":34962
		},
		{
			"buffer":0,
			"byteLength":288,
			"byteOffset":18256,
			"target":34962
		},
		{
			"buffer":0,
			"byteLength":192,
			"byteOffset":18544,
			"target":34962
		}
	],
	"buffers":[
		{
			"byteLength":18736,
			"uri":"closet.bin"
		}
	]
}
