{
	"asset":{
		"generator":"Khronos glTF Blender I/O v5.0.21",
		"version":"2.0"
	},
	"scene":0,
	"scenes":[
		{
			"name":"Scene",
			"nodes":[
				0,
				1,
				2,
				3
			]
		}
	],
	"nodes":[
		{
			"mesh":0,
			"name":"Cylinder",
			"scale":[
				0.5376654267311096,
				0.13423526287078857,
				0.5376654267311096
			],
			"translation":[
				0,
				-2.0742154121398926,
				0
			]
		},
		{
			"mesh":1,
			"name":"Cylinder.001",
			"translation":[
				0,
				1.502994179725647,
				0
			]
		},
		{
			"mesh":2,
			"name":"Cylinder.002",
			"rotation":[
				0,
				0,
				-0.7071068286895752,
				0.7071068286895752
			],
			"scale":[
				0.009999999776482582,
				0.9449862241744995,
				0.009999999776482582
			],
			"translation":[
				0,
				0.7136966586112976,
				0
			]
		},
		{
			"mesh":3,
			"name":"Cylinder.003",
			"rotation":[
				-0.5,
				0.5,
				-0.5,
				0.4999999701976776
			],
			"scale":[
				0.009999999776482582,
				0.9449862241744995,
				0.009999999776482582
			],
			"translation":[
				0,
				0.7136966586112976,
				0
			]
		}
	],
	"meshes":[
		{
			"name":"Cylinder",
			"primitives":[
				{
					"attributes":{
						"POSITION":0,
						"NORMAL":1,
						"TEXCOORD_0":2
					},
					"indices":3
				}
			]
		},
		{
			"name":"Cylinder.001",
			"primitives":[
				{
					"attributes":{
						"POSITION":4,
						"NORMAL":5,
						"TEXCOORD_0":6
					},
					"indices":7
				}
			]
		},
		{
			"name":"Cylinder.002",
			"primitives":[
				{
					"attributes":{
						"POSITION":8,
						"NORMAL":9,
						"TEXCOORD_0":10
					},
					"indices":11
				}
			]
		},
		{
			"name":"Cylinder.003",
			"primitives":[
				{
					"attributes":{
						"POSITION":12,
						"NORMAL":13,
						"TEXCOORD_0":14
					},
					"indices":11
				}
			]
		}
	],
	"accessors":[
		{
			"bufferView":0,
			"componentType":5126,
			"count":576,
			"max":[
				1,
				22.246429443359375,
				1
			],
			"min":[
				-1,
				-1,
				-1
			],
			"type":"VEC3"
		},
		{
			"bufferView":1,
			"componentType":5126,
			"count":576,
			"type":"VEC3"
		},
		{
			"bufferView":2,
			"componentType":5126,
			"count":576,
			"type":"VEC2"
		},
		{
			"bufferView":3,
			"componentType":5123,
			"count":948,
			"type":"SCALAR"
		},
		{
			"bufferView":4,
			"componentType":5126,
			"count":128,
			"max":[
				1,
				1,
				1
			],
			"min":[
				-1,
				-1,
				-1
			],
			"type":"VEC3"
		},
		{
			"bufferView":5,
			"componentType":5126,
			"count":128,
			"type":"VEC3"
		},
		{
			"bufferView":6,
			"componentType":5126,
			"count":128,
			"type":"VEC2"
		},
		{
			"bufferView":7,
			"componentType":5123,
			"count":192,
			"type":"SCALAR"
		},
		{
			"bufferView":8,
			"componentType":5126,
			"count":192,
			"max":[
				1,
				1,
				1
			],
			"min":[
				-1,
				-1,
				-1
			],
			"type":"VEC3"
		},
		{
			"bufferView":9,
			"componentType":5126,
			"count":192,
			"type":"VEC3"
		},
		{
			"bufferView":10,
			"componentType":5126,
			"count":192,
			"type":"VEC2"
		},
		{
			"bufferView":11,
			"componentType":5123,
			"count":372,
			"type":"SCALAR"
		},
		{
			"bufferView":12,
			"componentType":5126,
			"count":192,
			"max":[
				1,
				1,
				1
			],
			"min":[
				-1,
				-1,
				-1
			],
			"type":"VEC3"
		},
		{
			"bufferView":13,
			"componentType":5126,
			"count":192,
			"type":"VEC3"
		},
		{
			"bufferView":14,
			"componentType":5126,
			"count":192,
			"type":"VEC2"
		}
	],
	"bufferViews":[
		{
			"buffer":0,
			"byteLength":6912,
			"byteOffset":0,
			"target":34962
		},
		{
			"buffer":0,
			"byteLength":6912,
			"byteOffset":6912,
			"target":34962
		},
		{
			"buffer":0,
			"byteLength":4608,
			"byteOffset":13824,
			"target":34962
		},
		{
			"buffer":0,
			"byteLength":1896,
			"byteOffset":18432,
			"target":34963
		},
		{
			"buffer":0,
			"byteLength":1536,
			"byteOffset":20328,
			"target":34962
		},
		{
			"buffer":0,
			"byteLength":1536,
			"byteOffset":21864,
			"target":34962
		},
		{
			"buffer":0,
			"byteLength":1024,
			"byteOffset":23400,
			"target":34962
		},
		{
			"buffer":0,
			"byteLength":384,
			"byteOffset":24424,
			"target":34963
		},
		{
			"buffer":0,
			"byteLength":2304,
			"byteOffset":24808,
			"target":34962
		},
		{
			"buffer":0,
			"byteLength":2304,
			"byteOffset":27112,
			"target":34962
		},
		{
			"buffer":0,
			"byteLength":1536,
			"byteOffset":29416,
			"target":34962
		},
		{
			"buffer":0,
			"byteLength":744,
			"byteOffset":30952,
			"target":34963
		},
		{
			"buffer":0,
			"byteLength":2304,
			"byteOffset":31696,
			"target":34962
		},
		{
			"buffer":0,
			"byteLength":2304,
			"byteOffset":34000,
			"target":34962
		},
		{
			"buffer":0,
			"byteLength":1536,
			"byteOffset":36304,
			"target":34962
		}
	],
	"buffers":[
		{
			"byteLength":37840,
			"uri":"chair.bin"
		}
	]
}
