{
	"asset":{
		"generator":"Khronos glTF Blender I/O v5.0.21",
		"version":"2.0"
	},
	"scene":0,
	"scenes":[
		{
			"name":"Scene",
			"nodes":[
				0
			]
		}
	],
	"nodes":[
		{
			"mesh":0,
			"name":"Cube",
			"scale":[
				4.671634197235107,
				4.671634197235107,
				4.671634197235107
			]
		}
	],
	"meshes":[
		{
			"name":"Cube.005",
			"primitives":[
				{
					"attributes":{
						"POSITION":0,
						"NORMAL":1,
						"TEXCOORD_0":2
					},
					"indices":3
				}
			]
		}
	],
	"accessors":[
		{
			"bufferView":0,
			"componentType":5126,
			"count":1531,
			"max":[
				1,
				1.5379822254180908,
				1
			],
			"min":[
				-1,
				-1,
				-1
			],
			"type":"VEC3"
		},
		{
			"bufferView":1,
			"componentType":5126,
			"count":1531,
			"type":"VEC3"
		},
		{
			"bufferView":2,
			"componentType":5126,
			"count":1531,
			"type":"VEC2"
		},
		{
			"bufferView":3,
			"componentType":5123,
			"count":2538,
			"type":"SCALAR"
		}
	],
	"bufferViews":[
		{
			"buffer":0,
			"byteLength":18372,
			"byteOffset":0,
			"target":34962
		},
		{
			"buffer":0,
			"byteLength":18372,
			"byteOffset":18372,
			"target":34962
		},
		{
			"buffer":0,
			"byteLength":12248,
			"byteOffset":36744,
			"target":34962
		},
		{
			"buffer":0,
			"byteLength":5076,
			"byteOffset":48992,
			"target":34963
		}
	],
	"buffers":[
		{
			"byteLength":54068,
			"uri":"sink.bin"
		}
	]
}
